<mxfile host="app.diagrams.net" modified="2023-12-29T16:20:05.691Z" agent="Mozilla/5.0 (Windows NT 10.0; Win64; x64) AppleWebKit/537.36 (KHTML, like Gecko) Chrome/119.0.0.0 Safari/537.36 OPR/105.0.0.0" etag="T9Bpj8-VT9NTzUEOIttR" version="22.1.16" type="device">
  <diagram name="StrÃ¡nka-1" id="OH-5XI0bVyYn8MKt-u4t">
    <mxGraphModel dx="1380" dy="759" grid="1" gridSize="10" guides="1" tooltips="1" connect="1" arrows="1" fold="1" page="1" pageScale="1" pageWidth="827" pageHeight="1169" math="0" shadow="0">
      <root>
        <mxCell id="0" />
        <mxCell id="1" parent="0" />
        <mxCell id="9FICYESl1Aec-wgOd-3--3" value="" style="edgeStyle=orthogonalEdgeStyle;rounded=0;orthogonalLoop=1;jettySize=auto;html=1;" edge="1" parent="1" source="9FICYESl1Aec-wgOd-3--1" target="9FICYESl1Aec-wgOd-3--2">
          <mxGeometry relative="1" as="geometry" />
        </mxCell>
        <mxCell id="9FICYESl1Aec-wgOd-3--1" value="8 bit plain text" style="rounded=0;whiteSpace=wrap;html=1;" vertex="1" parent="1">
          <mxGeometry x="100" y="210" width="120" height="30" as="geometry" />
        </mxCell>
        <mxCell id="9FICYESl1Aec-wgOd-3--6" value="" style="edgeStyle=orthogonalEdgeStyle;rounded=0;orthogonalLoop=1;jettySize=auto;html=1;" edge="1" parent="1" source="9FICYESl1Aec-wgOd-3--2" target="9FICYESl1Aec-wgOd-3--5">
          <mxGeometry relative="1" as="geometry" />
        </mxCell>
        <mxCell id="9FICYESl1Aec-wgOd-3--2" value="Initial permutation" style="rounded=0;whiteSpace=wrap;html=1;" vertex="1" parent="1">
          <mxGeometry x="100" y="290" width="120" height="40" as="geometry" />
        </mxCell>
        <mxCell id="9FICYESl1Aec-wgOd-3--66" style="edgeStyle=orthogonalEdgeStyle;rounded=0;orthogonalLoop=1;jettySize=auto;html=1;exitX=0.5;exitY=1;exitDx=0;exitDy=0;entryX=0.5;entryY=0;entryDx=0;entryDy=0;" edge="1" parent="1" source="9FICYESl1Aec-wgOd-3--5" target="9FICYESl1Aec-wgOd-3--21">
          <mxGeometry relative="1" as="geometry" />
        </mxCell>
        <mxCell id="9FICYESl1Aec-wgOd-3--5" value="Complex function" style="rounded=0;whiteSpace=wrap;html=1;" vertex="1" parent="1">
          <mxGeometry x="100" y="360" width="120" height="40" as="geometry" />
        </mxCell>
        <mxCell id="9FICYESl1Aec-wgOd-3--25" value="10 bits" style="edgeStyle=orthogonalEdgeStyle;rounded=0;orthogonalLoop=1;jettySize=auto;html=1;" edge="1" parent="1" source="9FICYESl1Aec-wgOd-3--11" target="9FICYESl1Aec-wgOd-3--12">
          <mxGeometry relative="1" as="geometry" />
        </mxCell>
        <mxCell id="9FICYESl1Aec-wgOd-3--11" value="10 bit key" style="rounded=0;whiteSpace=wrap;html=1;" vertex="1" parent="1">
          <mxGeometry x="360" y="20" width="120" height="30" as="geometry" />
        </mxCell>
        <mxCell id="9FICYESl1Aec-wgOd-3--26" style="edgeStyle=orthogonalEdgeStyle;rounded=0;orthogonalLoop=1;jettySize=auto;html=1;exitX=0.25;exitY=1;exitDx=0;exitDy=0;" edge="1" parent="1" source="9FICYESl1Aec-wgOd-3--12" target="9FICYESl1Aec-wgOd-3--13">
          <mxGeometry relative="1" as="geometry" />
        </mxCell>
        <mxCell id="9FICYESl1Aec-wgOd-3--27" style="edgeStyle=orthogonalEdgeStyle;rounded=0;orthogonalLoop=1;jettySize=auto;html=1;exitX=0.75;exitY=1;exitDx=0;exitDy=0;" edge="1" parent="1" source="9FICYESl1Aec-wgOd-3--12" target="9FICYESl1Aec-wgOd-3--14">
          <mxGeometry relative="1" as="geometry" />
        </mxCell>
        <mxCell id="9FICYESl1Aec-wgOd-3--28" value="5 bits" style="edgeLabel;html=1;align=center;verticalAlign=middle;resizable=0;points=[];" vertex="1" connectable="0" parent="9FICYESl1Aec-wgOd-3--27">
          <mxGeometry x="-0.3111" y="2" relative="1" as="geometry">
            <mxPoint x="9" y="-8" as="offset" />
          </mxGeometry>
        </mxCell>
        <mxCell id="9FICYESl1Aec-wgOd-3--12" value="Permutation P10" style="rounded=0;whiteSpace=wrap;html=1;" vertex="1" parent="1">
          <mxGeometry x="360" y="90" width="120" height="60" as="geometry" />
        </mxCell>
        <mxCell id="9FICYESl1Aec-wgOd-3--30" style="edgeStyle=orthogonalEdgeStyle;rounded=0;orthogonalLoop=1;jettySize=auto;html=1;exitX=0.5;exitY=1;exitDx=0;exitDy=0;entryX=0.5;entryY=0;entryDx=0;entryDy=0;" edge="1" parent="1" source="9FICYESl1Aec-wgOd-3--13" target="9FICYESl1Aec-wgOd-3--18">
          <mxGeometry relative="1" as="geometry" />
        </mxCell>
        <mxCell id="9FICYESl1Aec-wgOd-3--13" value="Left shift x1" style="rounded=0;whiteSpace=wrap;html=1;" vertex="1" parent="1">
          <mxGeometry x="280" y="190" width="120" height="60" as="geometry" />
        </mxCell>
        <mxCell id="9FICYESl1Aec-wgOd-3--33" style="edgeStyle=orthogonalEdgeStyle;rounded=0;orthogonalLoop=1;jettySize=auto;html=1;exitX=0.5;exitY=1;exitDx=0;exitDy=0;entryX=0.5;entryY=0;entryDx=0;entryDy=0;" edge="1" parent="1" source="9FICYESl1Aec-wgOd-3--14" target="9FICYESl1Aec-wgOd-3--19">
          <mxGeometry relative="1" as="geometry" />
        </mxCell>
        <mxCell id="9FICYESl1Aec-wgOd-3--14" value="Left shift x1" style="rounded=0;whiteSpace=wrap;html=1;" vertex="1" parent="1">
          <mxGeometry x="440" y="190" width="120" height="60" as="geometry" />
        </mxCell>
        <mxCell id="9FICYESl1Aec-wgOd-3--36" style="edgeStyle=orthogonalEdgeStyle;rounded=0;orthogonalLoop=1;jettySize=auto;html=1;exitX=0.5;exitY=1;exitDx=0;exitDy=0;entryX=1;entryY=0.5;entryDx=0;entryDy=0;" edge="1" parent="1" source="9FICYESl1Aec-wgOd-3--17" target="9FICYESl1Aec-wgOd-3--5">
          <mxGeometry relative="1" as="geometry" />
        </mxCell>
        <mxCell id="9FICYESl1Aec-wgOd-3--17" value="Permutation P8" style="rounded=0;whiteSpace=wrap;html=1;" vertex="1" parent="1">
          <mxGeometry x="360" y="300" width="120" height="60" as="geometry" />
        </mxCell>
        <mxCell id="9FICYESl1Aec-wgOd-3--62" style="edgeStyle=orthogonalEdgeStyle;rounded=0;orthogonalLoop=1;jettySize=auto;html=1;exitX=0.5;exitY=1;exitDx=0;exitDy=0;entryX=0.25;entryY=0;entryDx=0;entryDy=0;" edge="1" parent="1" source="9FICYESl1Aec-wgOd-3--18" target="9FICYESl1Aec-wgOd-3--20">
          <mxGeometry relative="1" as="geometry" />
        </mxCell>
        <mxCell id="9FICYESl1Aec-wgOd-3--18" value="Left shift x2" style="rounded=0;whiteSpace=wrap;html=1;" vertex="1" parent="1">
          <mxGeometry x="280" y="420" width="120" height="60" as="geometry" />
        </mxCell>
        <mxCell id="9FICYESl1Aec-wgOd-3--63" style="edgeStyle=orthogonalEdgeStyle;rounded=0;orthogonalLoop=1;jettySize=auto;html=1;exitX=0.5;exitY=1;exitDx=0;exitDy=0;entryX=0.75;entryY=0;entryDx=0;entryDy=0;" edge="1" parent="1" source="9FICYESl1Aec-wgOd-3--19" target="9FICYESl1Aec-wgOd-3--20">
          <mxGeometry relative="1" as="geometry" />
        </mxCell>
        <mxCell id="9FICYESl1Aec-wgOd-3--19" value="Left shift x2" style="rounded=0;whiteSpace=wrap;html=1;" vertex="1" parent="1">
          <mxGeometry x="440" y="420" width="120" height="60" as="geometry" />
        </mxCell>
        <mxCell id="9FICYESl1Aec-wgOd-3--53" style="edgeStyle=orthogonalEdgeStyle;rounded=0;orthogonalLoop=1;jettySize=auto;html=1;exitX=0.5;exitY=1;exitDx=0;exitDy=0;entryX=1;entryY=0.5;entryDx=0;entryDy=0;" edge="1" parent="1" source="9FICYESl1Aec-wgOd-3--20" target="9FICYESl1Aec-wgOd-3--22">
          <mxGeometry relative="1" as="geometry" />
        </mxCell>
        <mxCell id="9FICYESl1Aec-wgOd-3--54" style="edgeStyle=orthogonalEdgeStyle;rounded=0;orthogonalLoop=1;jettySize=auto;html=1;exitX=0.5;exitY=1;exitDx=0;exitDy=0;entryX=0;entryY=0.5;entryDx=0;entryDy=0;" edge="1" parent="1" source="9FICYESl1Aec-wgOd-3--20" target="9FICYESl1Aec-wgOd-3--44">
          <mxGeometry relative="1" as="geometry" />
        </mxCell>
        <mxCell id="9FICYESl1Aec-wgOd-3--20" value="Permutation P8" style="rounded=0;whiteSpace=wrap;html=1;" vertex="1" parent="1">
          <mxGeometry x="360" y="540" width="120" height="60" as="geometry" />
        </mxCell>
        <mxCell id="9FICYESl1Aec-wgOd-3--67" style="edgeStyle=orthogonalEdgeStyle;rounded=0;orthogonalLoop=1;jettySize=auto;html=1;exitX=0.5;exitY=1;exitDx=0;exitDy=0;entryX=0.5;entryY=0;entryDx=0;entryDy=0;" edge="1" parent="1" source="9FICYESl1Aec-wgOd-3--21" target="9FICYESl1Aec-wgOd-3--22">
          <mxGeometry relative="1" as="geometry" />
        </mxCell>
        <mxCell id="9FICYESl1Aec-wgOd-3--21" value="Switch" style="rounded=0;whiteSpace=wrap;html=1;" vertex="1" parent="1">
          <mxGeometry x="100" y="440" width="120" height="40" as="geometry" />
        </mxCell>
        <mxCell id="9FICYESl1Aec-wgOd-3--68" style="edgeStyle=orthogonalEdgeStyle;rounded=0;orthogonalLoop=1;jettySize=auto;html=1;exitX=0.5;exitY=1;exitDx=0;exitDy=0;entryX=0.5;entryY=0;entryDx=0;entryDy=0;" edge="1" parent="1" source="9FICYESl1Aec-wgOd-3--22" target="9FICYESl1Aec-wgOd-3--23">
          <mxGeometry relative="1" as="geometry" />
        </mxCell>
        <mxCell id="9FICYESl1Aec-wgOd-3--22" value="Complex function" style="rounded=0;whiteSpace=wrap;html=1;" vertex="1" parent="1">
          <mxGeometry x="100" y="600" width="120" height="40" as="geometry" />
        </mxCell>
        <mxCell id="9FICYESl1Aec-wgOd-3--69" style="edgeStyle=orthogonalEdgeStyle;rounded=0;orthogonalLoop=1;jettySize=auto;html=1;exitX=0.5;exitY=1;exitDx=0;exitDy=0;entryX=0.5;entryY=0;entryDx=0;entryDy=0;" edge="1" parent="1" source="9FICYESl1Aec-wgOd-3--23" target="9FICYESl1Aec-wgOd-3--24">
          <mxGeometry relative="1" as="geometry" />
        </mxCell>
        <mxCell id="9FICYESl1Aec-wgOd-3--23" value="Inverse initial permutation" style="rounded=0;whiteSpace=wrap;html=1;" vertex="1" parent="1">
          <mxGeometry x="100" y="670" width="120" height="40" as="geometry" />
        </mxCell>
        <mxCell id="9FICYESl1Aec-wgOd-3--24" value="8 bit cipher text" style="rounded=0;whiteSpace=wrap;html=1;" vertex="1" parent="1">
          <mxGeometry x="100" y="740" width="120" height="30" as="geometry" />
        </mxCell>
        <mxCell id="9FICYESl1Aec-wgOd-3--29" value="5 bits" style="edgeLabel;html=1;align=center;verticalAlign=middle;resizable=0;points=[];" vertex="1" connectable="0" parent="1">
          <mxGeometry x="370" y="160" as="geometry" />
        </mxCell>
        <mxCell id="9FICYESl1Aec-wgOd-3--34" value="" style="endArrow=classic;html=1;rounded=0;entryX=0.25;entryY=0;entryDx=0;entryDy=0;" edge="1" parent="1" target="9FICYESl1Aec-wgOd-3--17">
          <mxGeometry width="50" height="50" relative="1" as="geometry">
            <mxPoint x="340" y="270" as="sourcePoint" />
            <mxPoint x="440" y="270" as="targetPoint" />
            <Array as="points">
              <mxPoint x="390" y="270" />
            </Array>
          </mxGeometry>
        </mxCell>
        <mxCell id="9FICYESl1Aec-wgOd-3--35" value="" style="endArrow=classic;html=1;rounded=0;entryX=0.75;entryY=0;entryDx=0;entryDy=0;" edge="1" parent="1" target="9FICYESl1Aec-wgOd-3--17">
          <mxGeometry width="50" height="50" relative="1" as="geometry">
            <mxPoint x="500" y="270" as="sourcePoint" />
            <mxPoint x="440" y="270" as="targetPoint" />
            <Array as="points">
              <mxPoint x="450" y="270" />
            </Array>
          </mxGeometry>
        </mxCell>
        <mxCell id="9FICYESl1Aec-wgOd-3--37" value="" style="endArrow=classic;html=1;rounded=0;entryX=0;entryY=0.5;entryDx=0;entryDy=0;" edge="1" parent="1" target="9FICYESl1Aec-wgOd-3--42">
          <mxGeometry width="50" height="50" relative="1" as="geometry">
            <mxPoint x="420" y="380" as="sourcePoint" />
            <mxPoint x="630" y="380" as="targetPoint" />
          </mxGeometry>
        </mxCell>
        <mxCell id="9FICYESl1Aec-wgOd-3--39" value="8 bit plain text" style="rounded=0;whiteSpace=wrap;html=1;" vertex="1" parent="1">
          <mxGeometry x="660" y="210" width="120" height="30" as="geometry" />
        </mxCell>
        <mxCell id="9FICYESl1Aec-wgOd-3--61" style="edgeStyle=orthogonalEdgeStyle;rounded=0;orthogonalLoop=1;jettySize=auto;html=1;exitX=0.5;exitY=0;exitDx=0;exitDy=0;entryX=0.5;entryY=1;entryDx=0;entryDy=0;" edge="1" parent="1" source="9FICYESl1Aec-wgOd-3--41" target="9FICYESl1Aec-wgOd-3--39">
          <mxGeometry relative="1" as="geometry" />
        </mxCell>
        <mxCell id="9FICYESl1Aec-wgOd-3--41" value="Inverse initial permutation" style="rounded=0;whiteSpace=wrap;html=1;" vertex="1" parent="1">
          <mxGeometry x="660" y="290" width="120" height="40" as="geometry" />
        </mxCell>
        <mxCell id="9FICYESl1Aec-wgOd-3--60" style="edgeStyle=orthogonalEdgeStyle;rounded=0;orthogonalLoop=1;jettySize=auto;html=1;exitX=0.5;exitY=0;exitDx=0;exitDy=0;entryX=0.5;entryY=1;entryDx=0;entryDy=0;" edge="1" parent="1" source="9FICYESl1Aec-wgOd-3--42" target="9FICYESl1Aec-wgOd-3--41">
          <mxGeometry relative="1" as="geometry" />
        </mxCell>
        <mxCell id="9FICYESl1Aec-wgOd-3--42" value="Complex function" style="rounded=0;whiteSpace=wrap;html=1;" vertex="1" parent="1">
          <mxGeometry x="660" y="360" width="120" height="40" as="geometry" />
        </mxCell>
        <mxCell id="9FICYESl1Aec-wgOd-3--59" style="edgeStyle=orthogonalEdgeStyle;rounded=0;orthogonalLoop=1;jettySize=auto;html=1;exitX=0.5;exitY=0;exitDx=0;exitDy=0;entryX=0.5;entryY=1;entryDx=0;entryDy=0;" edge="1" parent="1" source="9FICYESl1Aec-wgOd-3--43" target="9FICYESl1Aec-wgOd-3--42">
          <mxGeometry relative="1" as="geometry" />
        </mxCell>
        <mxCell id="9FICYESl1Aec-wgOd-3--43" value="Switch" style="rounded=0;whiteSpace=wrap;html=1;" vertex="1" parent="1">
          <mxGeometry x="660" y="440" width="120" height="40" as="geometry" />
        </mxCell>
        <mxCell id="9FICYESl1Aec-wgOd-3--58" style="edgeStyle=orthogonalEdgeStyle;rounded=0;orthogonalLoop=1;jettySize=auto;html=1;exitX=0.5;exitY=0;exitDx=0;exitDy=0;entryX=0.5;entryY=1;entryDx=0;entryDy=0;" edge="1" parent="1" source="9FICYESl1Aec-wgOd-3--44" target="9FICYESl1Aec-wgOd-3--43">
          <mxGeometry relative="1" as="geometry" />
        </mxCell>
        <mxCell id="9FICYESl1Aec-wgOd-3--44" value="Complex function" style="rounded=0;whiteSpace=wrap;html=1;" vertex="1" parent="1">
          <mxGeometry x="660" y="600" width="120" height="40" as="geometry" />
        </mxCell>
        <mxCell id="9FICYESl1Aec-wgOd-3--52" style="edgeStyle=orthogonalEdgeStyle;rounded=0;orthogonalLoop=1;jettySize=auto;html=1;exitX=0.5;exitY=0;exitDx=0;exitDy=0;entryX=0.5;entryY=1;entryDx=0;entryDy=0;" edge="1" parent="1" source="9FICYESl1Aec-wgOd-3--45" target="9FICYESl1Aec-wgOd-3--44">
          <mxGeometry relative="1" as="geometry" />
        </mxCell>
        <mxCell id="9FICYESl1Aec-wgOd-3--45" value="Initial permutation" style="rounded=0;whiteSpace=wrap;html=1;" vertex="1" parent="1">
          <mxGeometry x="660" y="670" width="120" height="40" as="geometry" />
        </mxCell>
        <mxCell id="9FICYESl1Aec-wgOd-3--51" style="edgeStyle=orthogonalEdgeStyle;rounded=0;orthogonalLoop=1;jettySize=auto;html=1;exitX=0.5;exitY=0;exitDx=0;exitDy=0;entryX=0.5;entryY=1;entryDx=0;entryDy=0;" edge="1" parent="1" source="9FICYESl1Aec-wgOd-3--46" target="9FICYESl1Aec-wgOd-3--45">
          <mxGeometry relative="1" as="geometry" />
        </mxCell>
        <mxCell id="9FICYESl1Aec-wgOd-3--46" value="8 bit cipher text" style="rounded=0;whiteSpace=wrap;html=1;" vertex="1" parent="1">
          <mxGeometry x="660" y="740" width="120" height="30" as="geometry" />
        </mxCell>
        <mxCell id="9FICYESl1Aec-wgOd-3--47" value="&lt;font style=&quot;font-size: 11px;&quot;&gt;K1 (8 bits)&lt;/font&gt;" style="text;html=1;strokeColor=none;fillColor=none;align=center;verticalAlign=middle;whiteSpace=wrap;rounded=0;" vertex="1" parent="1">
          <mxGeometry x="230" y="360" width="60" height="20" as="geometry" />
        </mxCell>
        <mxCell id="9FICYESl1Aec-wgOd-3--48" value="&lt;font style=&quot;font-size: 11px;&quot;&gt;5 bits&lt;/font&gt;" style="text;html=1;strokeColor=none;fillColor=none;align=center;verticalAlign=middle;whiteSpace=wrap;rounded=0;" vertex="1" parent="1">
          <mxGeometry x="300" y="250" width="40" height="20" as="geometry" />
        </mxCell>
        <mxCell id="9FICYESl1Aec-wgOd-3--49" value="&lt;font style=&quot;font-size: 11px;&quot;&gt;5 bits&lt;/font&gt;" style="text;html=1;strokeColor=none;fillColor=none;align=center;verticalAlign=middle;whiteSpace=wrap;rounded=0;" vertex="1" parent="1">
          <mxGeometry x="500" y="250" width="40" height="20" as="geometry" />
        </mxCell>
        <mxCell id="9FICYESl1Aec-wgOd-3--50" value="&lt;font style=&quot;font-size: 11px;&quot;&gt;K1 (8 bits)&lt;/font&gt;" style="text;html=1;strokeColor=none;fillColor=none;align=center;verticalAlign=middle;whiteSpace=wrap;rounded=0;" vertex="1" parent="1">
          <mxGeometry x="590" y="360" width="60" height="20" as="geometry" />
        </mxCell>
        <mxCell id="9FICYESl1Aec-wgOd-3--55" value="&lt;font style=&quot;font-size: 11px;&quot;&gt;K2 (8 bits)&lt;/font&gt;" style="text;html=1;strokeColor=none;fillColor=none;align=center;verticalAlign=middle;whiteSpace=wrap;rounded=0;" vertex="1" parent="1">
          <mxGeometry x="230" y="600" width="60" height="20" as="geometry" />
        </mxCell>
        <mxCell id="9FICYESl1Aec-wgOd-3--57" value="&lt;font style=&quot;font-size: 11px;&quot;&gt;K2 (8 bits)&lt;/font&gt;" style="text;html=1;strokeColor=none;fillColor=none;align=center;verticalAlign=middle;whiteSpace=wrap;rounded=0;" vertex="1" parent="1">
          <mxGeometry x="590" y="600" width="60" height="20" as="geometry" />
        </mxCell>
        <mxCell id="9FICYESl1Aec-wgOd-3--64" value="&lt;font style=&quot;font-size: 11px;&quot;&gt;5 bits&lt;/font&gt;" style="text;html=1;strokeColor=none;fillColor=none;align=center;verticalAlign=middle;whiteSpace=wrap;rounded=0;" vertex="1" parent="1">
          <mxGeometry x="500" y="480" width="40" height="20" as="geometry" />
        </mxCell>
        <mxCell id="9FICYESl1Aec-wgOd-3--65" value="&lt;font style=&quot;font-size: 11px;&quot;&gt;5 bits&lt;/font&gt;" style="text;html=1;strokeColor=none;fillColor=none;align=center;verticalAlign=middle;whiteSpace=wrap;rounded=0;" vertex="1" parent="1">
          <mxGeometry x="300" y="480" width="40" height="20" as="geometry" />
        </mxCell>
        <mxCell id="9FICYESl1Aec-wgOd-3--70" value="Encryption" style="text;html=1;strokeColor=none;fillColor=none;align=center;verticalAlign=middle;whiteSpace=wrap;rounded=0;" vertex="1" parent="1">
          <mxGeometry x="130" y="180" width="60" height="30" as="geometry" />
        </mxCell>
        <mxCell id="9FICYESl1Aec-wgOd-3--71" value="Decryption" style="text;html=1;strokeColor=none;fillColor=none;align=center;verticalAlign=middle;whiteSpace=wrap;rounded=0;" vertex="1" parent="1">
          <mxGeometry x="690" y="180" width="60" height="30" as="geometry" />
        </mxCell>
      </root>
    </mxGraphModel>
  </diagram>
</mxfile>
